<?xml version="1.0" encoding="UTF-8" standalone="no"?>
<!DOCTYPE svg PUBLIC "-//W3C//DTD SVG 1.1//EN"
 "http://www.w3.org/Graphics/SVG/1.1/DTD/svg11.dtd">
<!-- Generated by graphviz version 13.1.2 (0)
 -->
<!-- Pages: 1 -->
<svg width="1496pt" height="1222pt"
 viewBox="0.00 0.00 1496.00 1222.00" xmlns="http://www.w3.org/2000/svg" xmlns:xlink="http://www.w3.org/1999/xlink">
<g id="graph0" class="graph" transform="scale(1 1) rotate(0) translate(28.8 1193.45)">
<polygon fill="white" stroke="none" points="-28.8,28.8 -28.8,-1193.45 1466.89,-1193.45 1466.89,28.8 -28.8,28.8"/>
<text xml:space="preserve" text-anchor="middle" x="719.04" y="-1126.45" font-family="Helvetica,sans-Serif" font-size="36.00">game</text>
<!-- game -->
<g id="node1" class="node">
<title>game</title>
<polygon fill="#5397c8" stroke="black" points="681.68,-664.59 681.68,-709.09 735.68,-709.09 735.68,-664.59 681.68,-664.59"/>
<text xml:space="preserve" text-anchor="middle" x="708.68" y="-695.59" font-family="monospace" font-size="10.00">crate</text>
<polyline fill="none" stroke="black" points="681.68,-686.84 735.68,-686.84"/>
<text xml:space="preserve" text-anchor="middle" x="708.68" y="-673.34" font-family="monospace" font-size="10.00">game</text>
</g>
<!-- game::App -->
<g id="node2" class="node">
<title>game::App</title>
<polygon fill="#81c169" stroke="black" points="640.24,-953.66 640.24,-998.16 716.24,-998.16 716.24,-953.66 640.24,-953.66"/>
<text xml:space="preserve" text-anchor="middle" x="678.24" y="-984.66" font-family="monospace" font-size="10.00">pub struct</text>
<polyline fill="none" stroke="black" points="640.24,-975.91 716.24,-975.91"/>
<text xml:space="preserve" text-anchor="middle" x="678.24" y="-962.41" font-family="monospace" font-size="10.00">App</text>
</g>
<!-- game&#45;&gt;game::App -->
<g id="edge1" class="edge">
<title>game&#45;&gt;game::App</title>
<path fill="none" stroke="#000000" d="M706.29,-709.52C700.97,-760.07 688.1,-882.23 681.82,-941.93"/>
<polygon fill="#000000" stroke="#000000" points="678.34,-941.51 680.77,-951.83 685.3,-942.25 678.34,-941.51"/>
<text xml:space="preserve" text-anchor="middle" x="682.05" y="-830.47" font-family="monospace" font-size="10.00">owns</text>
</g>
<!-- game::GameData -->
<g id="node3" class="node">
<title>game::GameData</title>
<polygon fill="#f8c04c" stroke="black" points="512.93,-432.73 512.93,-477.23 630.93,-477.23 630.93,-432.73 512.93,-432.73"/>
<text xml:space="preserve" text-anchor="middle" x="571.93" y="-463.73" font-family="monospace" font-size="10.00">pub(crate) struct</text>
<polyline fill="none" stroke="black" points="512.93,-454.98 630.93,-454.98"/>
<text xml:space="preserve" text-anchor="middle" x="571.93" y="-441.48" font-family="monospace" font-size="10.00">GameData</text>
</g>
<!-- game&#45;&gt;game::GameData -->
<g id="edge2" class="edge">
<title>game&#45;&gt;game::GameData</title>
<path fill="none" stroke="#000000" d="M695.32,-664.18C670.96,-622.89 619.27,-535.24 591.14,-487.55"/>
<polygon fill="#000000" stroke="#000000" points="594.21,-485.87 586.11,-479.03 588.18,-489.42 594.21,-485.87"/>
<text xml:space="preserve" text-anchor="middle" x="631.23" y="-580.61" font-family="monospace" font-size="10.00">owns</text>
</g>
<!-- game::engine_desktop::ScriptEngineDesktop -->
<g id="node4" class="node">
<title>game::engine_desktop::ScriptEngineDesktop</title>
<polygon fill="#81c169" stroke="black" points="326.03,-786.26 326.03,-830.76 552.03,-830.76 552.03,-786.26 326.03,-786.26"/>
<text xml:space="preserve" text-anchor="middle" x="439.03" y="-817.26" font-family="monospace" font-size="10.00">pub struct</text>
<polyline fill="none" stroke="black" points="326.03,-808.51 552.03,-808.51"/>
<text xml:space="preserve" text-anchor="middle" x="439.03" y="-795.01" font-family="monospace" font-size="10.00">engine_desktop::ScriptEngineDesktop</text>
</g>
<!-- game&#45;&gt;game::engine_desktop::ScriptEngineDesktop -->
<g id="edge3" class="edge">
<title>game&#45;&gt;game::engine_desktop::ScriptEngineDesktop</title>
<path fill="none" stroke="#000000" d="M681.34,-699.17C638.99,-718.28 556.48,-755.51 499.6,-781.18"/>
<polygon fill="#000000" stroke="#000000" points="498.35,-777.9 490.67,-785.21 501.23,-784.28 498.35,-777.9"/>
<text xml:space="preserve" text-anchor="middle" x="578.47" y="-744.92" font-family="monospace" font-size="10.00">owns</text>
</g>
<!-- game::resources -->
<g id="node5" class="node">
<title>game::resources</title>
<polygon fill="#f8c04c" stroke="black" points="462.32,-961.47 462.32,-1005.97 562.32,-1005.97 562.32,-961.47 462.32,-961.47"/>
<text xml:space="preserve" text-anchor="middle" x="512.32" y="-992.47" font-family="monospace" font-size="10.00">pub(crate) mod</text>
<polyline fill="none" stroke="black" points="462.32,-983.72 562.32,-983.72"/>
<text xml:space="preserve" text-anchor="middle" x="512.32" y="-970.22" font-family="monospace" font-size="10.00">resources</text>
</g>
<!-- game&#45;&gt;game::resources -->
<g id="edge4" class="edge">
<title>game&#45;&gt;game::resources</title>
<path fill="none" stroke="#000000" d="M693.92,-709.15C659.45,-761.27 573.54,-891.16 533.49,-951.71"/>
<polygon fill="#000000" stroke="#000000" points="530.68,-949.62 528.08,-959.89 536.52,-953.48 530.68,-949.62"/>
<text xml:space="preserve" text-anchor="middle" x="601.71" y="-835.18" font-family="monospace" font-size="10.00">owns</text>
</g>
<!-- game::scripting -->
<g id="node6" class="node">
<title>game::scripting</title>
<polygon fill="#f8c04c" stroke="black" points="328.63,-573.08 328.63,-617.58 428.63,-617.58 428.63,-573.08 328.63,-573.08"/>
<text xml:space="preserve" text-anchor="middle" x="378.63" y="-604.08" font-family="monospace" font-size="10.00">pub(crate) mod</text>
<polyline fill="none" stroke="black" points="328.63,-595.33 428.63,-595.33"/>
<text xml:space="preserve" text-anchor="middle" x="378.63" y="-581.83" font-family="monospace" font-size="10.00">scripting</text>
</g>
<!-- game&#45;&gt;game::scripting -->
<g id="edge5" class="edge">
<title>game&#45;&gt;game::scripting</title>
<path fill="none" stroke="#000000" d="M681.39,-679.27C628.73,-664.67 511.92,-632.29 439.77,-612.28"/>
<polygon fill="#000000" stroke="#000000" points="441.05,-609.01 430.48,-609.71 439.18,-615.75 441.05,-609.01"/>
<text xml:space="preserve" text-anchor="middle" x="548.58" y="-650.53" font-family="monospace" font-size="10.00">owns</text>
</g>
<!-- game::state -->
<g id="node8" class="node">
<title>game::state</title>
<polygon fill="#f8c04c" stroke="black" points="1014.7,-741.84 1014.7,-786.34 1114.7,-786.34 1114.7,-741.84 1014.7,-741.84"/>
<text xml:space="preserve" text-anchor="middle" x="1064.7" y="-772.84" font-family="monospace" font-size="10.00">pub(crate) mod</text>
<polyline fill="none" stroke="black" points="1014.7,-764.09 1114.7,-764.09"/>
<text xml:space="preserve" text-anchor="middle" x="1064.7" y="-750.59" font-family="monospace" font-size="10.00">state</text>
</g>
<!-- game&#45;&gt;game::state -->
<g id="edge6" class="edge">
<title>game&#45;&gt;game::state</title>
<path fill="none" stroke="#000000" d="M736.03,-692.77C792.83,-705.09 924.8,-733.73 1003.14,-750.73"/>
<polygon fill="#000000" stroke="#000000" points="1002.3,-754.13 1012.82,-752.83 1003.79,-747.29 1002.3,-754.13"/>
<text xml:space="preserve" text-anchor="middle" x="857.58" y="-726.5" font-family="monospace" font-size="10.00">owns</text>
</g>
<!-- game::texture -->
<g id="node16" class="node">
<title>game::texture</title>
<polygon fill="#f8c04c" stroke="black" points="675.32,-310.29 675.32,-354.79 775.32,-354.79 775.32,-310.29 675.32,-310.29"/>
<text xml:space="preserve" text-anchor="middle" x="725.32" y="-341.29" font-family="monospace" font-size="10.00">pub(crate) mod</text>
<polyline fill="none" stroke="black" points="675.32,-332.54 775.32,-332.54"/>
<text xml:space="preserve" text-anchor="middle" x="725.32" y="-319.04" font-family="monospace" font-size="10.00">texture</text>
</g>
<!-- game&#45;&gt;game::texture -->
<g id="edge7" class="edge">
<title>game&#45;&gt;game::texture</title>
<path fill="none" stroke="#000000" d="M709.75,-664.13C712.59,-603.64 720.35,-438.29 723.72,-366.53"/>
<polygon fill="#000000" stroke="#000000" points="727.22,-366.71 724.19,-356.56 720.22,-366.39 727.22,-366.71"/>
<text xml:space="preserve" text-anchor="middle" x="704.73" y="-520.08" font-family="monospace" font-size="10.00">owns</text>
</g>
<!-- game::scripting::ScriptEngine -->
<g id="node7" class="node">
<title>game::scripting::ScriptEngine</title>
<polygon fill="#81c169" stroke="black" points="0,-533.51 0,-578.01 154,-578.01 154,-533.51 0,-533.51"/>
<text xml:space="preserve" text-anchor="middle" x="77" y="-564.51" font-family="monospace" font-size="10.00">pub trait</text>
<polyline fill="none" stroke="black" points="0,-555.76 154,-555.76"/>
<text xml:space="preserve" text-anchor="middle" x="77" y="-542.26" font-family="monospace" font-size="10.00">scripting::ScriptEngine</text>
</g>
<!-- game::scripting&#45;&gt;game::scripting::ScriptEngine -->
<g id="edge8" class="edge">
<title>game::scripting&#45;&gt;game::scripting::ScriptEngine</title>
<path fill="none" stroke="#000000" d="M328.15,-588.71C283.84,-582.9 218.38,-574.31 165.4,-567.36"/>
<polygon fill="#000000" stroke="#000000" points="166.17,-563.93 155.8,-566.1 165.26,-570.87 166.17,-563.93"/>
<text xml:space="preserve" text-anchor="middle" x="234.77" y="-582.79" font-family="monospace" font-size="10.00">owns</text>
</g>
<!-- game::state::Camera -->
<g id="node9" class="node">
<title>game::state::Camera</title>
<polygon fill="#db5367" stroke="black" points="1035.01,-452.88 1035.01,-497.38 1147.01,-497.38 1147.01,-452.88 1035.01,-452.88"/>
<text xml:space="preserve" text-anchor="middle" x="1091.01" y="-483.88" font-family="monospace" font-size="10.00">pub(self) struct</text>
<polyline fill="none" stroke="black" points="1035.01,-475.13 1147.01,-475.13"/>
<text xml:space="preserve" text-anchor="middle" x="1091.01" y="-461.63" font-family="monospace" font-size="10.00">state::Camera</text>
</g>
<!-- game::state&#45;&gt;game::state::Camera -->
<g id="edge9" class="edge">
<title>game::state&#45;&gt;game::state::Camera</title>
<path fill="none" stroke="#000000" d="M1066.76,-741.41C1071.36,-690.88 1082.48,-568.77 1087.91,-509.09"/>
<polygon fill="#000000" stroke="#000000" points="1091.39,-509.48 1088.82,-499.2 1084.42,-508.84 1091.39,-509.48"/>
<text xml:space="preserve" text-anchor="middle" x="1065.34" y="-630" font-family="monospace" font-size="10.00">owns</text>
</g>
<!-- game::state::CameraController -->
<g id="node10" class="node">
<title>game::state::CameraController</title>
<polygon fill="#db5367" stroke="black" points="1284.09,-616.15 1284.09,-660.65 1438.09,-660.65 1438.09,-616.15 1284.09,-616.15"/>
<text xml:space="preserve" text-anchor="middle" x="1361.09" y="-647.15" font-family="monospace" font-size="10.00">pub(self) struct</text>
<polyline fill="none" stroke="black" points="1284.09,-638.4 1438.09,-638.4"/>
<text xml:space="preserve" text-anchor="middle" x="1361.09" y="-624.9" font-family="monospace" font-size="10.00">state::CameraController</text>
</g>
<!-- game::state&#45;&gt;game::state::CameraController -->
<g id="edge10" class="edge">
<title>game::state&#45;&gt;game::state::CameraController</title>
<path fill="none" stroke="#000000" d="M1114.97,-742.76C1165.14,-721.49 1242.41,-688.73 1296.96,-665.59"/>
<polygon fill="#000000" stroke="#000000" points="1298.32,-668.82 1306.16,-661.69 1295.59,-662.37 1298.32,-668.82"/>
<text xml:space="preserve" text-anchor="middle" x="1193.97" y="-708.93" font-family="monospace" font-size="10.00">owns</text>
</g>
<!-- game::state::CameraUniform -->
<g id="node11" class="node">
<title>game::state::CameraUniform</title>
<polygon fill="#db5367" stroke="black" points="1192.86,-463.2 1192.86,-507.7 1328.86,-507.7 1328.86,-463.2 1192.86,-463.2"/>
<text xml:space="preserve" text-anchor="middle" x="1260.86" y="-494.2" font-family="monospace" font-size="10.00">pub(self) struct</text>
<polyline fill="none" stroke="black" points="1192.86,-485.45 1328.86,-485.45"/>
<text xml:space="preserve" text-anchor="middle" x="1260.86" y="-471.95" font-family="monospace" font-size="10.00">state::CameraUniform</text>
</g>
<!-- game::state&#45;&gt;game::state::CameraUniform -->
<g id="edge11" class="edge">
<title>game::state&#45;&gt;game::state::CameraUniform</title>
<path fill="none" stroke="#000000" d="M1080.42,-741.76C1115.14,-692.44 1198.46,-574.09 1238.55,-517.13"/>
<polygon fill="#000000" stroke="#000000" points="1241.3,-519.32 1244.19,-509.13 1235.57,-515.29 1241.3,-519.32"/>
<text xml:space="preserve" text-anchor="middle" x="1147.49" y="-634.19" font-family="monospace" font-size="10.00">owns</text>
</g>
<!-- game::state::Instance -->
<g id="node12" class="node">
<title>game::state::Instance</title>
<polygon fill="#db5367" stroke="black" points="925.71,-1039.55 925.71,-1084.05 1037.71,-1084.05 1037.71,-1039.55 925.71,-1039.55"/>
<text xml:space="preserve" text-anchor="middle" x="981.71" y="-1070.55" font-family="monospace" font-size="10.00">pub(self) struct</text>
<polyline fill="none" stroke="black" points="925.71,-1061.8 1037.71,-1061.8"/>
<text xml:space="preserve" text-anchor="middle" x="981.71" y="-1048.3" font-family="monospace" font-size="10.00">state::Instance</text>
</g>
<!-- game::state&#45;&gt;game::state::Instance -->
<g id="edge12" class="edge">
<title>game::state&#45;&gt;game::state::Instance</title>
<path fill="none" stroke="#000000" d="M1058.46,-786.46C1044.01,-838.3 1008.18,-966.83 991.08,-1028.18"/>
<polygon fill="#000000" stroke="#000000" points="987.74,-1027.13 988.42,-1037.71 994.48,-1029.01 987.74,-1027.13"/>
<text xml:space="preserve" text-anchor="middle" x="1012.77" y="-912.07" font-family="monospace" font-size="10.00">owns</text>
</g>
<!-- game::state::InstanceRaw -->
<g id="node13" class="node">
<title>game::state::InstanceRaw</title>
<polygon fill="#db5367" stroke="black" points="1313.47,-800.07 1313.47,-844.57 1437.47,-844.57 1437.47,-800.07 1313.47,-800.07"/>
<text xml:space="preserve" text-anchor="middle" x="1375.47" y="-831.07" font-family="monospace" font-size="10.00">pub(self) struct</text>
<polyline fill="none" stroke="black" points="1313.47,-822.32 1437.47,-822.32"/>
<text xml:space="preserve" text-anchor="middle" x="1375.47" y="-808.82" font-family="monospace" font-size="10.00">state::InstanceRaw</text>
</g>
<!-- game::state&#45;&gt;game::state::InstanceRaw -->
<g id="edge13" class="edge">
<title>game::state&#45;&gt;game::state::InstanceRaw</title>
<path fill="none" stroke="#000000" d="M1114.97,-773.51C1165.62,-783 1244.33,-797.75 1301.98,-808.55"/>
<polygon fill="#000000" stroke="#000000" points="1301.25,-811.97 1311.72,-810.38 1302.54,-805.09 1301.25,-811.97"/>
<text xml:space="preserve" text-anchor="middle" x="1196.47" y="-795.78" font-family="monospace" font-size="10.00">owns</text>
</g>
<!-- game::state::State -->
<g id="node14" class="node">
<title>game::state::State</title>
<polygon fill="#81c169" stroke="black" points="1248.48,-965.4 1248.48,-1009.9 1336.48,-1009.9 1336.48,-965.4 1248.48,-965.4"/>
<text xml:space="preserve" text-anchor="middle" x="1292.48" y="-996.4" font-family="monospace" font-size="10.00">pub struct</text>
<polyline fill="none" stroke="black" points="1248.48,-987.65 1336.48,-987.65"/>
<text xml:space="preserve" text-anchor="middle" x="1292.48" y="-974.15" font-family="monospace" font-size="10.00">state::State</text>
</g>
<!-- game::state&#45;&gt;game::state::State -->
<g id="edge14" class="edge">
<title>game::state&#45;&gt;game::state::State</title>
<path fill="none" stroke="#000000" d="M1087.79,-786.75C1128.89,-827.09 1214.76,-911.37 1261.14,-956.89"/>
<polygon fill="#000000" stroke="#000000" points="1258.66,-959.36 1268.24,-963.86 1263.56,-954.36 1258.66,-959.36"/>
<text xml:space="preserve" text-anchor="middle" x="1162.47" y="-876.57" font-family="monospace" font-size="10.00">owns</text>
</g>
<!-- game::state::Vertex -->
<g id="node15" class="node">
<title>game::state::Vertex</title>
<polygon fill="#db5367" stroke="black" points="1088.36,-1070.4 1088.36,-1114.9 1200.36,-1114.9 1200.36,-1070.4 1088.36,-1070.4"/>
<text xml:space="preserve" text-anchor="middle" x="1144.36" y="-1101.4" font-family="monospace" font-size="10.00">pub(self) struct</text>
<polyline fill="none" stroke="black" points="1088.36,-1092.65 1200.36,-1092.65"/>
<text xml:space="preserve" text-anchor="middle" x="1144.36" y="-1079.15" font-family="monospace" font-size="10.00">state::Vertex</text>
</g>
<!-- game::state&#45;&gt;game::state::Vertex -->
<g id="edge15" class="edge">
<title>game::state&#45;&gt;game::state::Vertex</title>
<path fill="none" stroke="#000000" d="M1070.17,-786.67C1083.9,-843.29 1119.85,-991.57 1136.14,-1058.73"/>
<polygon fill="#000000" stroke="#000000" points="1132.73,-1059.54 1138.49,-1068.44 1139.53,-1057.89 1132.73,-1059.54"/>
<text xml:space="preserve" text-anchor="middle" x="1091.15" y="-927.45" font-family="monospace" font-size="10.00">owns</text>
</g>
<!-- game::texture::GpuTexture -->
<g id="node17" class="node">
<title>game::texture::GpuTexture</title>
<polygon fill="#81c169" stroke="black" points="605.72,-0.5 605.72,-45 735.72,-45 735.72,-0.5 605.72,-0.5"/>
<text xml:space="preserve" text-anchor="middle" x="670.72" y="-31.5" font-family="monospace" font-size="10.00">pub struct</text>
<polyline fill="none" stroke="black" points="605.72,-22.75 735.72,-22.75"/>
<text xml:space="preserve" text-anchor="middle" x="670.72" y="-9.25" font-family="monospace" font-size="10.00">texture::GpuTexture</text>
</g>
<!-- game::texture&#45;&gt;game::texture::GpuTexture -->
<g id="edge16" class="edge">
<title>game::texture&#45;&gt;game::texture::GpuTexture</title>
<path fill="none" stroke="#000000" d="M721.35,-310.01C711.85,-256.14 687.8,-119.64 676.61,-56.16"/>
<polygon fill="#000000" stroke="#000000" points="680.13,-55.93 674.94,-46.68 673.23,-57.14 680.13,-55.93"/>
<text xml:space="preserve" text-anchor="middle" x="686.98" y="-187.83" font-family="monospace" font-size="10.00">owns</text>
</g>
</g>
</svg>
