<?xml version="1.0" encoding="UTF-8" standalone="no"?>
<!DOCTYPE svg PUBLIC "-//W3C//DTD SVG 1.1//EN"
 "http://www.w3.org/Graphics/SVG/1.1/DTD/svg11.dtd">
<!-- Generated by graphviz version 13.1.2 (0)
 -->
<!-- Pages: 1 -->
<svg width="1193pt" height="1143pt"
 viewBox="0.00 0.00 1193.00 1143.00" xmlns="http://www.w3.org/2000/svg" xmlns:xlink="http://www.w3.org/1999/xlink">
<g id="graph0" class="graph" transform="scale(1 1) rotate(0) translate(28.8 1114.58)">
<polygon fill="white" stroke="none" points="-28.8,28.8 -28.8,-1114.58 1164.16,-1114.58 1164.16,28.8 -28.8,28.8"/>
<text xml:space="preserve" text-anchor="middle" x="567.68" y="-1047.58" font-family="Helvetica,sans-Serif" font-size="36.00">game</text>
<!-- game -->
<g id="node1" class="node">
<title>game</title>
<polygon fill="#5397c8" stroke="black" points="538.14,-499.99 538.14,-544.49 592.14,-544.49 592.14,-499.99 538.14,-499.99"/>
<text xml:space="preserve" text-anchor="middle" x="565.14" y="-530.99" font-family="monospace" font-size="10.00">crate</text>
<polyline fill="none" stroke="black" points="538.14,-522.24 592.14,-522.24"/>
<text xml:space="preserve" text-anchor="middle" x="565.14" y="-508.74" font-family="monospace" font-size="10.00">game</text>
</g>
<!-- game::App -->
<g id="node2" class="node">
<title>game::App</title>
<polygon fill="#81c169" stroke="black" points="662.51,-489.87 662.51,-534.37 738.51,-534.37 738.51,-489.87 662.51,-489.87"/>
<text xml:space="preserve" text-anchor="middle" x="700.51" y="-520.87" font-family="monospace" font-size="10.00">pub struct</text>
<polyline fill="none" stroke="black" points="662.51,-512.12 738.51,-512.12"/>
<text xml:space="preserve" text-anchor="middle" x="700.51" y="-498.62" font-family="monospace" font-size="10.00">App</text>
</g>
<!-- game&#45;&gt;game::App -->
<g id="edge1" class="edge">
<title>game&#45;&gt;game::App</title>
<path fill="none" stroke="#000000" d="M592.54,-520.19C609.26,-518.94 631.15,-517.3 650.84,-515.83"/>
<polygon fill="#000000" stroke="#000000" points="650.91,-519.34 660.62,-515.1 650.38,-512.36 650.91,-519.34"/>
<text xml:space="preserve" text-anchor="middle" x="609.69" y="-522.76" font-family="monospace" font-size="10.00">owns</text>
</g>
<!-- game::camera -->
<g id="node3" class="node">
<title>game::camera</title>
<polygon fill="#f8c04c" stroke="black" points="497.03,-768.13 497.03,-812.63 597.03,-812.63 597.03,-768.13 497.03,-768.13"/>
<text xml:space="preserve" text-anchor="middle" x="547.03" y="-799.13" font-family="monospace" font-size="10.00">pub(crate) mod</text>
<polyline fill="none" stroke="black" points="497.03,-790.38 597.03,-790.38"/>
<text xml:space="preserve" text-anchor="middle" x="547.03" y="-776.88" font-family="monospace" font-size="10.00">camera</text>
</g>
<!-- game&#45;&gt;game::camera -->
<g id="edge2" class="edge">
<title>game&#45;&gt;game::camera</title>
<path fill="none" stroke="#000000" d="M563.63,-544.64C560.45,-591.66 553.07,-700.9 549.31,-756.52"/>
<polygon fill="#000000" stroke="#000000" points="545.83,-756.13 548.65,-766.35 552.82,-756.61 545.83,-756.13"/>
<text xml:space="preserve" text-anchor="middle" x="544.47" y="-655.33" font-family="monospace" font-size="10.00">owns</text>
</g>
<!-- game::engine_desktop::ScriptEngineDesktop -->
<g id="node7" class="node">
<title>game::engine_desktop::ScriptEngineDesktop</title>
<polygon fill="#81c169" stroke="black" points="319.48,-406.33 319.48,-450.83 545.48,-450.83 545.48,-406.33 319.48,-406.33"/>
<text xml:space="preserve" text-anchor="middle" x="432.48" y="-437.33" font-family="monospace" font-size="10.00">pub struct</text>
<polyline fill="none" stroke="black" points="319.48,-428.58 545.48,-428.58"/>
<text xml:space="preserve" text-anchor="middle" x="432.48" y="-415.08" font-family="monospace" font-size="10.00">engine_desktop::ScriptEngineDesktop</text>
</g>
<!-- game&#45;&gt;game::engine_desktop::ScriptEngineDesktop -->
<g id="edge3" class="edge">
<title>game&#45;&gt;game::engine_desktop::ScriptEngineDesktop</title>
<path fill="none" stroke="#000000" d="M537.66,-502.83C519.23,-489.82 494.62,-472.45 473.84,-457.78"/>
<polygon fill="#000000" stroke="#000000" points="476.03,-455.04 465.84,-452.13 471.99,-460.76 476.03,-455.04"/>
<text xml:space="preserve" text-anchor="middle" x="493.75" y="-485.06" font-family="monospace" font-size="10.00">owns</text>
</g>
<!-- game::model -->
<g id="node8" class="node">
<title>game::model</title>
<polygon fill="#f8c04c" stroke="black" points="559.71,-226.68 559.71,-271.18 659.71,-271.18 659.71,-226.68 559.71,-226.68"/>
<text xml:space="preserve" text-anchor="middle" x="609.71" y="-257.68" font-family="monospace" font-size="10.00">pub(crate) mod</text>
<polyline fill="none" stroke="black" points="559.71,-248.93 659.71,-248.93"/>
<text xml:space="preserve" text-anchor="middle" x="609.71" y="-235.43" font-family="monospace" font-size="10.00">model</text>
</g>
<!-- game&#45;&gt;game::model -->
<g id="edge4" class="edge">
<title>game&#45;&gt;game::model</title>
<path fill="none" stroke="#000000" d="M568.79,-499.87C576.59,-452.02 594.95,-339.49 604.19,-282.81"/>
<polygon fill="#000000" stroke="#000000" points="607.62,-283.53 605.77,-273.1 600.71,-282.41 607.62,-283.53"/>
<text xml:space="preserve" text-anchor="middle" x="574.49" y="-396.09" font-family="monospace" font-size="10.00">owns</text>
</g>
<!-- game::resources -->
<g id="node15" class="node">
<title>game::resources</title>
<polygon fill="#f8c04c" stroke="black" points="405.69,-618.18 405.69,-662.68 505.69,-662.68 505.69,-618.18 405.69,-618.18"/>
<text xml:space="preserve" text-anchor="middle" x="455.69" y="-649.18" font-family="monospace" font-size="10.00">pub(crate) mod</text>
<polyline fill="none" stroke="black" points="405.69,-640.43 505.69,-640.43"/>
<text xml:space="preserve" text-anchor="middle" x="455.69" y="-626.93" font-family="monospace" font-size="10.00">resources</text>
</g>
<!-- game&#45;&gt;game::resources -->
<g id="edge5" class="edge">
<title>game&#45;&gt;game::resources</title>
<path fill="none" stroke="#000000" d="M544.3,-544.74C527.26,-563.15 502.99,-589.35 484.16,-609.69"/>
<polygon fill="#000000" stroke="#000000" points="481.71,-607.18 477.48,-616.89 486.85,-611.93 481.71,-607.18"/>
<text xml:space="preserve" text-anchor="middle" x="502.23" y="-581.97" font-family="monospace" font-size="10.00">owns</text>
</g>
<!-- game::scripting -->
<g id="node16" class="node">
<title>game::scripting</title>
<polygon fill="#f8c04c" stroke="black" points="771.04,-491.7 771.04,-536.2 871.04,-536.2 871.04,-491.7 771.04,-491.7"/>
<text xml:space="preserve" text-anchor="middle" x="821.04" y="-522.7" font-family="monospace" font-size="10.00">pub(crate) mod</text>
<polyline fill="none" stroke="black" points="771.04,-513.95 871.04,-513.95"/>
<text xml:space="preserve" text-anchor="middle" x="821.04" y="-500.45" font-family="monospace" font-size="10.00">scripting</text>
</g>
<!-- game&#45;&gt;game::scripting -->
<g id="edge6" class="edge">
<title>game&#45;&gt;game::scripting</title>
<path fill="none" stroke="#000000" d="M592.53,-521.35C632.05,-520.07 706.15,-517.67 759.26,-515.95"/>
<polygon fill="#000000" stroke="#000000" points="759.2,-519.45 769.08,-515.63 758.97,-512.46 759.2,-519.45"/>
<text xml:space="preserve" text-anchor="middle" x="663.9" y="-523.4" font-family="monospace" font-size="10.00">owns</text>
</g>
<!-- game::state -->
<g id="node18" class="node">
<title>game::state</title>
<polygon fill="#f8c04c" stroke="black" points="237.94,-511.34 237.94,-555.84 337.94,-555.84 337.94,-511.34 237.94,-511.34"/>
<text xml:space="preserve" text-anchor="middle" x="287.94" y="-542.34" font-family="monospace" font-size="10.00">pub(crate) mod</text>
<polyline fill="none" stroke="black" points="237.94,-533.59 337.94,-533.59"/>
<text xml:space="preserve" text-anchor="middle" x="287.94" y="-520.09" font-family="monospace" font-size="10.00">state</text>
</g>
<!-- game&#45;&gt;game::state -->
<g id="edge7" class="edge">
<title>game&#45;&gt;game::state</title>
<path fill="none" stroke="#000000" d="M537.81,-523.35C494.4,-525.13 408.6,-528.65 349.77,-531.06"/>
<polygon fill="#000000" stroke="#000000" points="349.74,-527.56 339.89,-531.46 350.03,-534.55 349.74,-527.56"/>
<text xml:space="preserve" text-anchor="middle" x="431.79" y="-531.96" font-family="monospace" font-size="10.00">owns</text>
</g>
<!-- game::texture -->
<g id="node22" class="node">
<title>game::texture</title>
<polygon fill="#f8c04c" stroke="black" points="699.36,-655.69 699.36,-700.19 799.36,-700.19 799.36,-655.69 699.36,-655.69"/>
<text xml:space="preserve" text-anchor="middle" x="749.36" y="-686.69" font-family="monospace" font-size="10.00">pub(crate) mod</text>
<polyline fill="none" stroke="black" points="699.36,-677.94 799.36,-677.94"/>
<text xml:space="preserve" text-anchor="middle" x="749.36" y="-664.44" font-family="monospace" font-size="10.00">texture</text>
</g>
<!-- game&#45;&gt;game::texture -->
<g id="edge8" class="edge">
<title>game&#45;&gt;game::texture</title>
<path fill="none" stroke="#000000" d="M591.93,-544.88C624.13,-572.09 678.26,-617.85 713.9,-647.97"/>
<polygon fill="#000000" stroke="#000000" points="711.49,-650.51 721.38,-654.29 716,-645.17 711.49,-650.51"/>
<text xml:space="preserve" text-anchor="middle" x="640.92" y="-601.17" font-family="monospace" font-size="10.00">owns</text>
</g>
<!-- game::camera::Camera -->
<g id="node4" class="node">
<title>game::camera::Camera</title>
<polygon fill="#81c169" stroke="black" points="477.35,-991.53 477.35,-1036.03 577.35,-1036.03 577.35,-991.53 477.35,-991.53"/>
<text xml:space="preserve" text-anchor="middle" x="527.35" y="-1022.53" font-family="monospace" font-size="10.00">pub struct</text>
<polyline fill="none" stroke="black" points="477.35,-1013.78 577.35,-1013.78"/>
<text xml:space="preserve" text-anchor="middle" x="527.35" y="-1000.28" font-family="monospace" font-size="10.00">camera::Camera</text>
</g>
<!-- game::camera&#45;&gt;game::camera::Camera -->
<g id="edge9" class="edge">
<title>game::camera&#45;&gt;game::camera::Camera</title>
<path fill="none" stroke="#000000" d="M545.03,-813.03C541.56,-852.42 534.4,-933.73 530.33,-979.87"/>
<polygon fill="#000000" stroke="#000000" points="526.87,-979.3 529.48,-989.56 533.84,-979.91 526.87,-979.3"/>
<text xml:space="preserve" text-anchor="middle" x="525.68" y="-901.2" font-family="monospace" font-size="10.00">owns</text>
</g>
<!-- game::camera::CameraController -->
<g id="node5" class="node">
<title>game::camera::CameraController</title>
<polygon fill="#81c169" stroke="black" points="625.06,-947.36 625.06,-991.86 785.06,-991.86 785.06,-947.36 625.06,-947.36"/>
<text xml:space="preserve" text-anchor="middle" x="705.06" y="-978.36" font-family="monospace" font-size="10.00">pub struct</text>
<polyline fill="none" stroke="black" points="625.06,-969.61 785.06,-969.61"/>
<text xml:space="preserve" text-anchor="middle" x="705.06" y="-956.11" font-family="monospace" font-size="10.00">camera::CameraController</text>
</g>
<!-- game::camera&#45;&gt;game::camera::CameraController -->
<g id="edge10" class="edge">
<title>game::camera&#45;&gt;game::camera::CameraController</title>
<path fill="none" stroke="#000000" d="M567.04,-813.08C595.06,-844.86 646.09,-902.73 677.63,-938.5"/>
<polygon fill="#000000" stroke="#000000" points="674.97,-940.77 684.21,-945.96 680.22,-936.14 674.97,-940.77"/>
<text xml:space="preserve" text-anchor="middle" x="610.34" y="-880.54" font-family="monospace" font-size="10.00">owns</text>
</g>
<!-- game::camera::Projection -->
<g id="node6" class="node">
<title>game::camera::Projection</title>
<polygon fill="#81c169" stroke="black" points="300.06,-918.33 300.06,-962.83 424.06,-962.83 424.06,-918.33 300.06,-918.33"/>
<text xml:space="preserve" text-anchor="middle" x="362.06" y="-949.33" font-family="monospace" font-size="10.00">pub struct</text>
<polyline fill="none" stroke="black" points="300.06,-940.58 424.06,-940.58"/>
<text xml:space="preserve" text-anchor="middle" x="362.06" y="-927.08" font-family="monospace" font-size="10.00">camera::Projection</text>
</g>
<!-- game::camera&#45;&gt;game::camera::Projection -->
<g id="edge11" class="edge">
<title>game::camera&#45;&gt;game::camera::Projection</title>
<path fill="none" stroke="#000000" d="M519.33,-812.87C487.19,-838.97 434.06,-882.12 398.56,-910.94"/>
<polygon fill="#000000" stroke="#000000" points="396.67,-907.97 391.12,-916.99 401.09,-913.4 396.67,-907.97"/>
<text xml:space="preserve" text-anchor="middle" x="446.95" y="-866.66" font-family="monospace" font-size="10.00">owns</text>
</g>
<!-- game::model::DrawModel -->
<g id="node9" class="node">
<title>game::model::DrawModel</title>
<polygon fill="#81c169" stroke="black" points="400.94,-39.2 400.94,-83.7 512.94,-83.7 512.94,-39.2 400.94,-39.2"/>
<text xml:space="preserve" text-anchor="middle" x="456.94" y="-70.2" font-family="monospace" font-size="10.00">pub trait</text>
<polyline fill="none" stroke="black" points="400.94,-61.45 512.94,-61.45"/>
<text xml:space="preserve" text-anchor="middle" x="456.94" y="-47.95" font-family="monospace" font-size="10.00">model::DrawModel</text>
</g>
<!-- game::model&#45;&gt;game::model::DrawModel -->
<g id="edge12" class="edge">
<title>game::model&#45;&gt;game::model::DrawModel</title>
<path fill="none" stroke="#000000" d="M591.28,-226.32C564.1,-192.96 513.16,-130.44 482.41,-92.71"/>
<polygon fill="#000000" stroke="#000000" points="485.42,-90.86 476.38,-85.31 479.99,-95.28 485.42,-90.86"/>
<text xml:space="preserve" text-anchor="middle" x="524.85" y="-164.26" font-family="monospace" font-size="10.00">owns</text>
</g>
<!-- game::model::Material -->
<g id="node10" class="node">
<title>game::model::Material</title>
<polygon fill="#81c169" stroke="black" points="654.97,-21.27 654.97,-65.77 760.97,-65.77 760.97,-21.27 654.97,-21.27"/>
<text xml:space="preserve" text-anchor="middle" x="707.97" y="-52.27" font-family="monospace" font-size="10.00">pub struct</text>
<polyline fill="none" stroke="black" points="654.97,-43.52 760.97,-43.52"/>
<text xml:space="preserve" text-anchor="middle" x="707.97" y="-30.02" font-family="monospace" font-size="10.00">model::Material</text>
</g>
<!-- game::model&#45;&gt;game::model::Material -->
<g id="edge13" class="edge">
<title>game::model&#45;&gt;game::model::Material</title>
<path fill="none" stroke="#000000" d="M620.42,-226.56C637.76,-190.31 672.08,-118.55 692.22,-76.45"/>
<polygon fill="#000000" stroke="#000000" points="695.32,-78.07 696.48,-67.54 689.01,-75.05 695.32,-78.07"/>
<text xml:space="preserve" text-anchor="middle" x="644.32" y="-156.26" font-family="monospace" font-size="10.00">owns</text>
</g>
<!-- game::model::Mesh -->
<g id="node11" class="node">
<title>game::model::Mesh</title>
<polygon fill="#81c169" stroke="black" points="538.04,-0.5 538.04,-45 620.04,-45 620.04,-0.5 538.04,-0.5"/>
<text xml:space="preserve" text-anchor="middle" x="579.04" y="-31.5" font-family="monospace" font-size="10.00">pub struct</text>
<polyline fill="none" stroke="black" points="538.04,-22.75 620.04,-22.75"/>
<text xml:space="preserve" text-anchor="middle" x="579.04" y="-9.25" font-family="monospace" font-size="10.00">model::Mesh</text>
</g>
<!-- game::model&#45;&gt;game::model::Mesh -->
<g id="edge14" class="edge">
<title>game::model&#45;&gt;game::model::Mesh</title>
<path fill="none" stroke="#000000" d="M606.66,-226.42C601.25,-186.54 589.96,-103.28 583.62,-56.51"/>
<polygon fill="#000000" stroke="#000000" points="587.1,-56.11 582.29,-46.67 580.16,-57.05 587.1,-56.11"/>
<text xml:space="preserve" text-anchor="middle" x="583.14" y="-146.21" font-family="monospace" font-size="10.00">owns</text>
</g>
<!-- game::model::Model -->
<g id="node12" class="node">
<title>game::model::Model</title>
<polygon fill="#81c169" stroke="black" points="350.24,-138.59 350.24,-183.09 438.24,-183.09 438.24,-138.59 350.24,-138.59"/>
<text xml:space="preserve" text-anchor="middle" x="394.24" y="-169.59" font-family="monospace" font-size="10.00">pub struct</text>
<polyline fill="none" stroke="black" points="350.24,-160.84 438.24,-160.84"/>
<text xml:space="preserve" text-anchor="middle" x="394.24" y="-147.34" font-family="monospace" font-size="10.00">model::Model</text>
</g>
<!-- game::model&#45;&gt;game::model::Model -->
<g id="edge15" class="edge">
<title>game::model&#45;&gt;game::model::Model</title>
<path fill="none" stroke="#000000" d="M559.47,-228.39C526.33,-214.85 482.94,-197.11 448.94,-183.21"/>
<polygon fill="#000000" stroke="#000000" points="450.69,-180.14 440.11,-179.6 448.04,-186.62 450.69,-180.14"/>
<text xml:space="preserve" text-anchor="middle" x="492.2" y="-210.55" font-family="monospace" font-size="10.00">owns</text>
</g>
<!-- game::model::ModelVertex -->
<g id="node13" class="node">
<title>game::model::ModelVertex</title>
<polygon fill="#81c169" stroke="black" points="750.13,-96.08 750.13,-140.58 874.13,-140.58 874.13,-96.08 750.13,-96.08"/>
<text xml:space="preserve" text-anchor="middle" x="812.13" y="-127.08" font-family="monospace" font-size="10.00">pub struct</text>
<polyline fill="none" stroke="black" points="750.13,-118.33 874.13,-118.33"/>
<text xml:space="preserve" text-anchor="middle" x="812.13" y="-104.83" font-family="monospace" font-size="10.00">model::ModelVertex</text>
</g>
<!-- game::model&#45;&gt;game::model::ModelVertex -->
<g id="edge16" class="edge">
<title>game::model&#45;&gt;game::model::ModelVertex</title>
<path fill="none" stroke="#000000" d="M644.97,-226.18C678.97,-204.24 730.56,-170.96 767.43,-147.17"/>
<polygon fill="#000000" stroke="#000000" points="769.16,-150.22 775.66,-141.85 765.36,-144.34 769.16,-150.22"/>
<text xml:space="preserve" text-anchor="middle" x="694.2" y="-191.43" font-family="monospace" font-size="10.00">owns</text>
</g>
<!-- game::model::Vertex -->
<g id="node14" class="node">
<title>game::model::Vertex</title>
<polygon fill="#81c169" stroke="black" points="798.05,-208.88 798.05,-253.38 892.05,-253.38 892.05,-208.88 798.05,-208.88"/>
<text xml:space="preserve" text-anchor="middle" x="845.05" y="-239.88" font-family="monospace" font-size="10.00">pub trait</text>
<polyline fill="none" stroke="black" points="798.05,-231.13 892.05,-231.13"/>
<text xml:space="preserve" text-anchor="middle" x="845.05" y="-217.63" font-family="monospace" font-size="10.00">model::Vertex</text>
</g>
<!-- game::model&#45;&gt;game::model::Vertex -->
<g id="edge17" class="edge">
<title>game::model&#45;&gt;game::model::Vertex</title>
<path fill="none" stroke="#000000" d="M660.2,-245.11C697.32,-242.3 747.86,-238.48 786.71,-235.54"/>
<polygon fill="#000000" stroke="#000000" points="786.63,-239.06 796.34,-234.81 786.1,-232.08 786.63,-239.06"/>
<text xml:space="preserve" text-anchor="middle" x="711.45" y="-245.08" font-family="monospace" font-size="10.00">owns</text>
</g>
<!-- game::scripting::ScriptEngine -->
<g id="node17" class="node">
<title>game::scripting::ScriptEngine</title>
<polygon fill="#81c169" stroke="black" points="981.36,-506.13 981.36,-550.63 1135.36,-550.63 1135.36,-506.13 981.36,-506.13"/>
<text xml:space="preserve" text-anchor="middle" x="1058.36" y="-537.13" font-family="monospace" font-size="10.00">pub trait</text>
<polyline fill="none" stroke="black" points="981.36,-528.38 1135.36,-528.38"/>
<text xml:space="preserve" text-anchor="middle" x="1058.36" y="-514.88" font-family="monospace" font-size="10.00">scripting::ScriptEngine</text>
</g>
<!-- game::scripting&#45;&gt;game::scripting::ScriptEngine -->
<g id="edge18" class="edge">
<title>game::scripting&#45;&gt;game::scripting::ScriptEngine</title>
<path fill="none" stroke="#000000" d="M871.37,-517.01C899.97,-518.75 936.61,-520.98 969.87,-523"/>
<polygon fill="#000000" stroke="#000000" points="969.29,-526.47 979.49,-523.59 969.72,-519.48 969.29,-526.47"/>
<text xml:space="preserve" text-anchor="middle" x="908.62" y="-524.75" font-family="monospace" font-size="10.00">owns</text>
</g>
<!-- game::state::CameraUniform -->
<g id="node19" class="node">
<title>game::state::CameraUniform</title>
<polygon fill="#db5367" stroke="black" points="39.94,-353.07 39.94,-397.57 175.94,-397.57 175.94,-353.07 39.94,-353.07"/>
<text xml:space="preserve" text-anchor="middle" x="107.94" y="-384.07" font-family="monospace" font-size="10.00">pub(self) struct</text>
<polyline fill="none" stroke="black" points="39.94,-375.32 175.94,-375.32"/>
<text xml:space="preserve" text-anchor="middle" x="107.94" y="-361.82" font-family="monospace" font-size="10.00">state::CameraUniform</text>
</g>
<!-- game::state&#45;&gt;game::state::CameraUniform -->
<g id="edge19" class="edge">
<title>game::state&#45;&gt;game::state::CameraUniform</title>
<path fill="none" stroke="#000000" d="M262.15,-510.91C230.6,-483.18 177.1,-436.13 142.14,-405.39"/>
<polygon fill="#000000" stroke="#000000" points="144.64,-402.93 134.81,-398.95 140.01,-408.18 144.64,-402.93"/>
<text xml:space="preserve" text-anchor="middle" x="190.14" y="-462.9" font-family="monospace" font-size="10.00">owns</text>
</g>
<!-- game::state::InstanceRaw -->
<g id="node20" class="node">
<title>game::state::InstanceRaw</title>
<polygon fill="#db5367" stroke="black" points="0,-521.87 0,-566.37 124,-566.37 124,-521.87 0,-521.87"/>
<text xml:space="preserve" text-anchor="middle" x="62" y="-552.87" font-family="monospace" font-size="10.00">pub(self) struct</text>
<polyline fill="none" stroke="black" points="0,-544.12 124,-544.12"/>
<text xml:space="preserve" text-anchor="middle" x="62" y="-530.62" font-family="monospace" font-size="10.00">state::InstanceRaw</text>
</g>
<!-- game::state&#45;&gt;game::state::InstanceRaw -->
<g id="edge20" class="edge">
<title>game::state&#45;&gt;game::state::InstanceRaw</title>
<path fill="none" stroke="#000000" d="M237.51,-535.94C207.48,-537.34 168.84,-539.14 135.47,-540.7"/>
<polygon fill="#000000" stroke="#000000" points="135.71,-537.18 125.88,-541.14 136.03,-544.17 135.71,-537.18"/>
<text xml:space="preserve" text-anchor="middle" x="174.49" y="-543.07" font-family="monospace" font-size="10.00">owns</text>
</g>
<!-- game::state::State -->
<g id="node21" class="node">
<title>game::state::State</title>
<polygon fill="#81c169" stroke="black" points="85.73,-686.87 85.73,-731.37 173.73,-731.37 173.73,-686.87 85.73,-686.87"/>
<text xml:space="preserve" text-anchor="middle" x="129.73" y="-717.87" font-family="monospace" font-size="10.00">pub struct</text>
<polyline fill="none" stroke="black" points="85.73,-709.12 173.73,-709.12"/>
<text xml:space="preserve" text-anchor="middle" x="129.73" y="-695.62" font-family="monospace" font-size="10.00">state::State</text>
</g>
<!-- game::state&#45;&gt;game::state::State -->
<g id="edge21" class="edge">
<title>game::state&#45;&gt;game::state::State</title>
<path fill="none" stroke="#000000" d="M267.58,-556.18C239.57,-587.25 189.06,-643.29 157.58,-678.22"/>
<polygon fill="#000000" stroke="#000000" points="155.12,-675.72 151.02,-685.49 160.32,-680.41 155.12,-675.72"/>
<text xml:space="preserve" text-anchor="middle" x="200.58" y="-621.95" font-family="monospace" font-size="10.00">owns</text>
</g>
<!-- game::texture::GpuTexture -->
<g id="node23" class="node">
<title>game::texture::GpuTexture</title>
<polygon fill="#81c169" stroke="black" points="892.1,-779.24 892.1,-823.74 1022.1,-823.74 1022.1,-779.24 892.1,-779.24"/>
<text xml:space="preserve" text-anchor="middle" x="957.1" y="-810.24" font-family="monospace" font-size="10.00">pub struct</text>
<polyline fill="none" stroke="black" points="892.1,-801.49 1022.1,-801.49"/>
<text xml:space="preserve" text-anchor="middle" x="957.1" y="-787.99" font-family="monospace" font-size="10.00">texture::GpuTexture</text>
</g>
<!-- game::texture&#45;&gt;game::texture::GpuTexture -->
<g id="edge22" class="edge">
<title>game::texture&#45;&gt;game::texture::GpuTexture</title>
<path fill="none" stroke="#000000" d="M787.46,-700.6C821.76,-721 872.32,-751.07 909.31,-773.07"/>
<polygon fill="#000000" stroke="#000000" points="907.2,-775.88 917.59,-777.99 910.78,-769.87 907.2,-775.88"/>
<text xml:space="preserve" text-anchor="middle" x="836.39" y="-741.58" font-family="monospace" font-size="10.00">owns</text>
</g>
</g>
</svg>
